<?xml version="1.0" encoding="utf-8"?>
<!-- Generator: Adobe Illustrator 22.0.1, SVG Export Plug-In . SVG Version: 6.00 Build 0)  -->
<svg version="1.1" id="eac00f18-7eab-4208-ad4d-248901d936f9"
	 xmlns="http://www.w3.org/2000/svg" xmlns:xlink="http://www.w3.org/1999/xlink" x="0px" y="0px" viewBox="0 0 866.5 637.1"
	 style="enable-background:new 0 0 866.5 637.1;" xml:space="preserve">
<style type="text/css">
	.st0{fill:#F1F1F1;}
	.st1{fill:#FFB7B7;}
	.st2{fill:#2F2E41;}
	.st3{fill:#CBCBCB;}
	.st4{fill:#EAEAEA;}
	.st5{fill:#E5E5E5;}
	.st6{fill:#6562FC;}
	.st7{fill:#FFFFFF;}
</style>
<path class="st0" d="M805,637.1v-72.3C805,564.7,833.2,616,805,637.1z"/>
<path class="st0" d="M806.7,637l-53.3-48.9C753.5,588.1,810.3,602,806.7,637z"/>
<path class="st1" d="M576.5,446c-0.4-5,3.2-9.4,8.2-9.9c0.5,0,1.1,0,1.6,0l9.6-18.4l12.6,3.1l-13.9,25.8c-0.8,5-5.4,8.4-10.4,7.6
	C580.1,453.6,576.9,450.2,576.5,446L576.5,446z"/>
<polygon class="st1" points="633.9,625.5 623.2,625.5 618.2,584.4 633.9,584.4 "/>
<path class="st2" d="M636.6,635.9l-34.3,0v-0.4c0-7.4,6-13.4,13.4-13.4h0l21,0L636.6,635.9z"/>
<polygon class="st1" points="719.5,617.6 709.3,620.4 693.6,582.1 708.7,577.9 "/>
<path class="st2" d="M724.9,626.8l-33.1,9l-0.1-0.4c-1.9-7.1,2.3-14.5,9.4-16.4l0,0l20.2-5.5L724.9,626.8z"/>
<polygon class="st2" points="614.4,448 609.1,528.7 620.5,619.3 639.2,613.6 640,532.7 655,486 699.3,610.6 719.5,603.1 
	702.8,522.2 693.3,446.3 "/>
<path class="st3" d="M666.1,306.3l-31.5,4.6l-11.3,11.2l-3.5,40.3l2.2,35.7l-9.1,63c0,0,22.9-12.7,40.7,3.2
	c17.8,15.9,42.6,2.8,43.1-7.8L666.1,306.3z"/>
<path class="st2" d="M650.1,356.9L650.1,356.9l15.6-51l0.2,0c1.1-0.1,27.3-1.6,33.2,11.3l0,0.1l-1.8,53l2.5,83l-48.5,10.5l-0.4,0.1
	L650.1,356.9z"/>
<path class="st2" d="M632.8,353.4l2.9-43.2c-20.4,1.3-20.1,15.7-20.1,16.4l-0.2,64.6l-4.1,69.2l14.9-1.1L632.8,353.4z"/>
<path class="st2" d="M586.7,432l18.1-42l12.6-23.2l6.6,41.9L601.2,443L586.7,432z"/>
<path class="st1" d="M661.6,416.5c1-4.9,5.9-8,10.8-7c0.5,0.1,1,0.3,1.5,0.5l14.6-14.8l11.1,6.7l-20.9,20.6
	c-2.2,4.5-7.7,6.4-12.2,4.2C662.8,424.9,660.7,420.7,661.6,416.5z"/>
<path class="st2" d="M673.9,404.6l29.8-32.7L684,343.8l2-13.8l11.6-14.4l0.2,0.3c1.2,1.6,30.4,39.4,31.2,53.8
	c0.8,14.4-41,50.7-42.8,52.3l-0.2,0.2L673.9,404.6z"/>
<circle class="st1" cx="647.9" cy="281.6" r="21.2"/>
<path class="st2" d="M667.8,264.7l1-2.1l-5.2-2.6c0,0-5.7-9.3-16-6.7s-15,4.2-15,4.2l-5.2,2.6l2.6,2.6l-4.6,1.6l3.1,1.5l-3.6,2.1
	l1.9,10.6c0,0,3.2-8.1,9.4-5s17.5-1.6,17.5-1.6l9.9,19.1c0,0,2-6.7,5.7-4.9C669.4,286.1,678.7,271.4,667.8,264.7z"/>
<path class="st4" d="M428.2,384.6l-322.1,88.8L0,88.8L322.1,0L428.2,384.6z"/>
<path class="st0" d="M428.2,384.6l-322.1,88.8L0,88.8L322.1,0L428.2,384.6z M110.2,466.2l310.7-85.7L318,7.2L7.2,92.9L110.2,466.2z"
	/>
<path class="st5" d="M252,172.3l-80.7,22.3c-2.4,0.7-4.8-0.7-5.5-3.1l-22.3-80.7c-0.7-2.4,0.7-4.8,3.1-5.5L227.4,83
	c2.4-0.7,4.8,0.7,5.5,3.1l22.3,80.7C255.8,169.2,254.4,171.6,252,172.3z M147.1,106.9c-1.4,0.4-2.3,1.9-1.9,3.3l22.3,80.7
	c0.4,1.4,1.9,2.3,3.3,1.9l80.7-22.3c1.4-0.4,2.3-1.9,1.9-3.3l-22.3-80.7c-0.4-1.4-1.9-2.3-3.3-1.9L147.1,106.9z"/>
<path class="st6" d="M231.5,188.6l-80.7,22.3c-2.1,0.6-4.3-0.7-4.9-2.8l-22.3-80.7c-0.6-2.1,0.7-4.3,2.8-4.9l80.7-22.3
	c2.1-0.6,4.3,0.7,4.9,2.8l22.3,80.7C234.9,185.8,233.7,188,231.5,188.6z"/>
<rect x="96.8" y="230.5" transform="matrix(0.964 -0.2659 0.2659 0.964 -54.793 65.2497)" class="st0" width="233.7" height="9"/>
<rect x="103" y="253.2" transform="matrix(0.964 -0.2659 0.2659 0.964 -60.6032 67.7312)" class="st0" width="233.7" height="9"/>
<rect x="109.3" y="275.9" transform="matrix(0.964 -0.2659 0.2659 0.964 -66.4135 70.2128)" class="st0" width="233.7" height="9"/>
<rect x="120.3" y="315.9" transform="matrix(0.964 -0.2659 0.2659 0.964 -76.6395 74.5803)" class="st0" width="233.7" height="9"/>
<rect x="126.6" y="338.6" transform="matrix(0.964 -0.2659 0.2659 0.964 -82.4497 77.0618)" class="st0" width="233.7" height="9"/>
<rect x="132.8" y="361.3" transform="matrix(0.964 -0.2659 0.2659 0.964 -88.26 79.5433)" class="st0" width="233.7" height="9"/>
<path class="st4" d="M531.3,472.1H197.1v-399h334.1V472.1z"/>
<path class="st5" d="M531.3,472.1H197.1v-399h334.1V472.1z M203,466.2h322.3V79.1H203V466.2z"/>
<rect x="279.4" y="244.7" class="st6" width="191" height="9"/>
<rect x="279.4" y="268.2" class="st6" width="191" height="9"/>
<rect x="279.4" y="291.7" class="st6" width="191" height="9"/>
<circle class="st6" cx="263.9" cy="250.5" r="5.9"/>
<rect x="279.4" y="143.5" class="st5" width="191" height="9"/>
<rect x="279.4" y="167" class="st5" width="191" height="9"/>
<rect x="279.4" y="190.5" class="st5" width="191" height="9"/>
<circle class="st5" cx="263.9" cy="148.4" r="5.9"/>
<rect x="279.4" y="346.9" class="st5" width="191" height="9"/>
<rect x="279.4" y="370.4" class="st5" width="191" height="9"/>
<rect x="279.4" y="393.8" class="st5" width="191" height="9"/>
<circle class="st5" cx="263.9" cy="351.7" r="5.9"/>
<circle class="st6" cx="515.7" cy="438.2" r="68.3"/>
<path class="st7" d="M534.6,433.8v-13.1c0-10.4-8.5-18.9-18.9-18.9c-10.4,0-18.9,8.5-18.9,18.9v13.1c-5.3,0.2-9.4,4.6-9.4,9.8v30.9
	H544v-30.9C544,438.4,539.9,434.1,534.6,433.8z M515.7,408.5c6.8,0,12.3,5.5,12.3,12.3v13h-24.5v-13
	C503.4,414,508.9,408.5,515.7,408.5z"/>
<path class="st6" d="M520.8,449.1c0-2.8-2.3-5.1-5.1-5.1c-2.8,0-5.1,2.3-5.1,5.1c0,1.7,0.8,3.3,2.2,4.2v11.1h5.7v-11.1
	C519.9,452.4,520.8,450.8,520.8,449.1z"/>
<path class="st3" d="M865.5,636.7h-381c-0.6,0-1-0.4-1-1s0.4-1,1-1h381c0.6,0,1,0.4,1,1S866.1,636.7,865.5,636.7z"/>
</svg>
