<?xml version="1.0" encoding="utf-8"?>
<!-- Generator: Adobe Illustrator 22.0.1, SVG Export Plug-In . SVG Version: 6.00 Build 0)  -->
<svg version="1.1" id="Capa_1" xmlns="http://www.w3.org/2000/svg" xmlns:xlink="http://www.w3.org/1999/xlink" x="0px" y="0px"
	 viewBox="0 0 512 512" style="enable-background:new 0 0 512 512;" xml:space="preserve">
<style type="text/css">
	.st0{fill:#FFFFFF;}
</style>
<g>
	<g>
		<path class="st0" d="M241,329.1c-4.6-4.6-11.9-4.6-16.5,0l-43.1,43.2h-30.1c-6.4,0-11.6,5.2-11.6,11.6v23.3h-23.3
			c-6.4,0-11.6,5.2-11.6,11.6v23.3H81.5c-6.4,0-11.6,5.2-11.6,11.6v30.1l-4.8,4.8H23.3V447l194.4-194.6c4.6-4.5,4.6-11.9,0-16.5
			l-3.4-3.4c-3.1-3.1-4.8-7.2-4.8-11.6v0c0-6.4-5.2-11.6-11.6-11.6s-11.6,5.2-11.6,11.7c0,8.3,2.5,16.2,7.2,22.8L3.4,433.9
			C1.2,436.1,0,439,0,442.1v58.2c0,6.4,5.2,11.6,11.6,11.6h58.2c3.1,0,6.1-1.2,8.2-3.4l11.6-11.6c2.2-2.2,3.4-5.1,3.4-8.2v-23.3
			h23.3c6.4,0,11.6-5.2,11.6-11.6v-23.3h23.3c6.4,0,11.6-5.2,11.6-11.6v-23.3h23.3c3.1,0,6.1-1.2,8.2-3.4l46.5-46.6
			C245.5,341,245.5,333.7,241,329.1z"/>
	</g>
</g>
<g>
	<g>
		<path class="st0" d="M421.3,137l-46.5-46.6c-13.7-13.7-37.7-13.7-51.4,0c-14.2,14.2-14.2,37.2,0,51.4l46.5,46.6
			c6.9,6.9,16,10.6,25.7,10.6c9.7,0,18.8-3.8,25.7-10.6C435.5,174.2,435.5,151.1,421.3,137z M404.9,171.9c-4.9,4.9-13.5,4.9-18.5,0
			l-46.5-46.6c-5.1-5.1-5.1-13.4,0-18.5c2.5-2.5,5.7-3.8,9.2-3.8s6.8,1.4,9.2,3.8l46.5,46.6C409.9,158.5,409.9,166.8,404.9,171.9z"
			/>
	</g>
</g>
<g>
	<g>
		<path class="st0" d="M500.4,146.2L365.5,11.3c-15-15-41.2-15-56.2,0L197.8,122.9c-7.5,7.5-11.6,17.5-11.6,28.1s4.1,20.6,11.6,28.1
			l111.5,111.6l-6.8,6.9c-3.1,3.1-7.2,4.8-11.6,4.8h0c-4.4,0-8.5-1.7-11.6-4.8L246.8,265c-4.6-4.5-11.9-4.5-16.5,0l-64,64
			c-4.6,4.5-4.6,11.9,0,16.5c2.3,2.3,5.2,3.4,8.2,3.4s6-1.1,8.2-3.4l55.8-55.8l24.3,24.3c7.5,7.5,17.5,11.6,28.1,11.6c0,0,0,0,0,0
			c10.6,0,20.5-4.2,28-11.6L334,299c4.5-4.5,4.5-11.9,0-16.5L214.3,162.6c-3.1-3.1-4.8-7.2-4.8-11.6c0-4.4,1.7-8.5,4.8-11.6
			L325.8,27.7c6.2-6.2,17-6.2,23.3,0l134.8,134.9c3.1,3.1,4.8,7.2,4.8,11.6s-1.7,8.5-4.8,11.6L372.4,297.6
			c-3.1,3.1-7.2,4.8-11.6,4.8c-6.4,0-11.6,5.2-11.6,11.6s5.2,11.6,11.6,11.6c10.6,0,20.6-4.1,28.1-11.6l111.5-111.6
			c7.5-7.5,11.6-17.5,11.6-28.1C512,163.7,507.9,153.7,500.4,146.2z"/>
	</g>
</g>
</svg>
